<svg width="41" height="40" viewBox="0 0 41 40" fill="none" xmlns="http://www.w3.org/2000/svg">
<rect opacity="0.2" width="41" height="40" rx="20" fill="#002359"/>
<rect x="3" y="3" width="35" height="34" rx="17" fill="#002359"/>
<path d="M28.5 20.6583C28.3689 22.0768 27.8365 23.4287 26.9652 24.5557C26.0939 25.6826 24.9196 26.5382 23.5797 27.0221C22.2399 27.5061 20.79 27.5984 19.3996 27.2884C18.0092 26.9784 16.7358 26.2788 15.7285 25.2715C14.7212 24.2642 14.0216 22.9908 13.7116 21.6004C13.4016 20.21 13.4939 18.7601 13.9779 17.4202C14.4618 16.0804 15.3174 14.9061 16.4443 14.0348C17.5713 13.1634 18.9232 12.6311 20.3417 12.5C19.5112 13.6236 19.1115 15.0079 19.2154 16.4012C19.3193 17.7945 19.9199 19.1042 20.9078 20.0922C21.8958 21.0801 23.2055 21.6807 24.5988 21.7846C25.9921 21.8885 27.3764 21.4888 28.5 20.6583V20.6583Z" stroke="white" stroke-linecap="round" stroke-linejoin="round"/>
</svg>
