<svg width="24" height="24" viewBox="0 0 24 24" fill="none" xmlns="http://www.w3.org/2000/svg">
<path d="M17.944 18.3783C18.1775 18.6119 18.5542 18.627 18.7953 18.3783C19.0439 18.1222 19.0288 17.7606 18.7953 17.5271L6.01093 4.75781C5.7774 4.52427 5.39319 4.51674 5.15965 4.75781C4.93365 4.98382 4.93365 5.37556 5.15965 5.60156L17.944 18.3783ZM18.6521 16.0731C20.8519 14.5965 22.2456 12.6002 22.2456 11.7112C22.2456 10.1895 18.1097 5.25502 12.0001 5.25502C10.7194 5.25502 9.52154 5.47349 8.43671 5.8351L10.5009 7.89927C10.968 7.71094 11.4727 7.60547 12.0076 7.60547C14.2902 7.60547 16.1359 9.42104 16.1359 11.7188C16.1359 12.2461 16.0229 12.7584 15.8195 13.2179L18.6521 16.0731ZM12.0001 18.1749C13.3787 18.1749 14.6594 17.9263 15.7894 17.512L13.7102 15.4328C13.1979 15.6889 12.6178 15.8245 12.0076 15.8245C9.70987 15.8245 7.87924 13.9487 7.8717 11.7188C7.8717 11.0935 8.00731 10.5059 8.25591 9.98605L5.53632 7.25139C3.19341 8.75809 1.75452 10.8223 1.75452 11.7112C1.75452 13.2405 5.96573 18.1749 12.0001 18.1749ZM14.4108 11.5605C14.4108 10.2422 13.3561 9.17997 12.0302 9.17997C11.9473 9.17997 11.8644 9.1875 11.7891 9.19503L14.3957 11.7941C14.4032 11.7263 14.4108 11.6434 14.4108 11.5605ZM9.5818 11.5907C9.5818 12.909 10.6666 13.9713 11.9775 13.9713C12.0679 13.9713 12.1507 13.9637 12.2336 13.9562L9.59687 11.3195C9.58934 11.4099 9.5818 11.5003 9.5818 11.5907Z" fill="#032371"/>
</svg>
