<svg width="20" height="20" viewBox="0 0 20 20" fill="none" xmlns="http://www.w3.org/2000/svg">
<path d="M20 9.95936C20 9.28012 19.9337 8.627 19.8106 8H10V11.7054H15.6061C15.3646 12.9028 14.6307 13.9173 13.5275 14.5965V17H16.8939C18.8636 15.3324 20 12.8766 20 9.95936Z" fill="#4285F4"/>
<path d="M10.1923 20C12.9696 20 15.2981 19.1156 17 17.6072L13.6756 15.1291C12.7545 15.7217 11.5763 16.0718 10.1923 16.0718C7.51315 16.0718 5.24547 14.3345 4.43659 12H1V14.5589C2.69258 17.7868 6.17124 20 10.1923 20Z" fill="#34A853"/>
<path d="M5 11.6923C4.77296 11.1579 4.64396 10.587 4.64396 10C4.64396 9.41296 4.77296 8.8421 5 8.30769V6H1.20743C0.412797 7.24118 -0.000700336 8.61102 8.90388e-07 10C8.90388e-07 11.4372 0.438597 12.7976 1.20743 14L5 11.6923Z" fill="#FBBC05"/>
<path d="M10.1495 3.92817C11.6527 3.92817 13.0023 4.42649 14.0634 5.40516L17 2.57239C15.2269 0.978676 12.9092 0 10.1495 0C6.14718 0 2.6847 2.21324 1 5.44108L4.42059 8C5.22571 5.66554 7.48284 3.92817 10.1495 3.92817Z" fill="#EA4335"/>
</svg>
